<mxfile host="app.diagrams.net" modified="2022-03-12T15:18:16.982Z" agent="5.0 (Macintosh)" etag="znZEmeGD05bfwA2eNVEs" version="17.1.2" type="github" pages="2">
  <diagram id="C5RBs43oDa-KdzZeNtuy" name="Navigation">
    <mxGraphModel dx="1426" dy="792" grid="1" gridSize="10" guides="1" tooltips="1" connect="1" arrows="1" fold="1" page="1" pageScale="1" pageWidth="827" pageHeight="1169" math="0" shadow="0">
      <root>
        <mxCell id="WIyWlLk6GJQsqaUBKTNV-0" />
        <mxCell id="WIyWlLk6GJQsqaUBKTNV-1" parent="WIyWlLk6GJQsqaUBKTNV-0" />
        <mxCell id="A2MpQam9D6wGkPrpOAFW-15" value="" style="whiteSpace=wrap;html=1;aspect=fixed;" vertex="1" parent="WIyWlLk6GJQsqaUBKTNV-1">
          <mxGeometry x="40" y="40" width="495" height="495" as="geometry" />
        </mxCell>
        <mxCell id="A2MpQam9D6wGkPrpOAFW-5" value="" style="edgeStyle=orthogonalEdgeStyle;rounded=0;orthogonalLoop=1;jettySize=auto;html=1;" edge="1" parent="WIyWlLk6GJQsqaUBKTNV-1" source="WIyWlLk6GJQsqaUBKTNV-3" target="A2MpQam9D6wGkPrpOAFW-2">
          <mxGeometry relative="1" as="geometry" />
        </mxCell>
        <mxCell id="WIyWlLk6GJQsqaUBKTNV-3" value="Informações Estáticas da Região" style="rounded=1;whiteSpace=wrap;html=1;fontSize=12;glass=0;strokeWidth=1;shadow=0;" parent="WIyWlLk6GJQsqaUBKTNV-1" vertex="1">
          <mxGeometry x="77.5" y="90" width="120" height="40" as="geometry" />
        </mxCell>
        <mxCell id="A2MpQam9D6wGkPrpOAFW-9" value="" style="edgeStyle=orthogonalEdgeStyle;rounded=0;orthogonalLoop=1;jettySize=auto;html=1;" edge="1" parent="WIyWlLk6GJQsqaUBKTNV-1" source="A2MpQam9D6wGkPrpOAFW-0">
          <mxGeometry relative="1" as="geometry">
            <mxPoint x="287.5" y="270" as="targetPoint" />
          </mxGeometry>
        </mxCell>
        <mxCell id="A2MpQam9D6wGkPrpOAFW-0" value="Origem e Destino" style="rounded=1;whiteSpace=wrap;html=1;" vertex="1" parent="WIyWlLk6GJQsqaUBKTNV-1">
          <mxGeometry x="227.5" y="90" width="120" height="40" as="geometry" />
        </mxCell>
        <mxCell id="A2MpQam9D6wGkPrpOAFW-4" value="" style="edgeStyle=orthogonalEdgeStyle;rounded=0;orthogonalLoop=1;jettySize=auto;html=1;" edge="1" parent="WIyWlLk6GJQsqaUBKTNV-1" source="A2MpQam9D6wGkPrpOAFW-1" target="A2MpQam9D6wGkPrpOAFW-3">
          <mxGeometry relative="1" as="geometry" />
        </mxCell>
        <mxCell id="A2MpQam9D6wGkPrpOAFW-1" value="Informações Dinâmicas da Região" style="rounded=1;whiteSpace=wrap;html=1;" vertex="1" parent="WIyWlLk6GJQsqaUBKTNV-1">
          <mxGeometry x="377.5" y="90" width="120" height="40" as="geometry" />
        </mxCell>
        <mxCell id="A2MpQam9D6wGkPrpOAFW-7" value="" style="edgeStyle=orthogonalEdgeStyle;rounded=0;orthogonalLoop=1;jettySize=auto;html=1;" edge="1" parent="WIyWlLk6GJQsqaUBKTNV-1" source="A2MpQam9D6wGkPrpOAFW-2" target="A2MpQam9D6wGkPrpOAFW-6">
          <mxGeometry relative="1" as="geometry">
            <Array as="points">
              <mxPoint x="137.5" y="300" />
            </Array>
          </mxGeometry>
        </mxCell>
        <mxCell id="A2MpQam9D6wGkPrpOAFW-2" value="Processamento das informações estáticas" style="rounded=1;whiteSpace=wrap;html=1;" vertex="1" parent="WIyWlLk6GJQsqaUBKTNV-1">
          <mxGeometry x="77.5" y="180" width="120" height="60" as="geometry" />
        </mxCell>
        <mxCell id="A2MpQam9D6wGkPrpOAFW-14" style="edgeStyle=orthogonalEdgeStyle;rounded=0;orthogonalLoop=1;jettySize=auto;html=1;entryX=1;entryY=0.5;entryDx=0;entryDy=0;" edge="1" parent="WIyWlLk6GJQsqaUBKTNV-1" source="A2MpQam9D6wGkPrpOAFW-3" target="A2MpQam9D6wGkPrpOAFW-10">
          <mxGeometry relative="1" as="geometry">
            <Array as="points">
              <mxPoint x="447.5" y="400" />
            </Array>
          </mxGeometry>
        </mxCell>
        <mxCell id="A2MpQam9D6wGkPrpOAFW-3" value="Transformação de Coordenadas" style="whiteSpace=wrap;html=1;rounded=1;" vertex="1" parent="WIyWlLk6GJQsqaUBKTNV-1">
          <mxGeometry x="377.5" y="180" width="120" height="60" as="geometry" />
        </mxCell>
        <mxCell id="A2MpQam9D6wGkPrpOAFW-11" value="" style="edgeStyle=orthogonalEdgeStyle;rounded=0;orthogonalLoop=1;jettySize=auto;html=1;" edge="1" parent="WIyWlLk6GJQsqaUBKTNV-1" source="A2MpQam9D6wGkPrpOAFW-6" target="A2MpQam9D6wGkPrpOAFW-10">
          <mxGeometry relative="1" as="geometry" />
        </mxCell>
        <mxCell id="A2MpQam9D6wGkPrpOAFW-6" value="Obtenção do Global Path (Artificial Potencial Fields)" style="whiteSpace=wrap;html=1;rounded=1;" vertex="1" parent="WIyWlLk6GJQsqaUBKTNV-1">
          <mxGeometry x="227.5" y="270" width="120" height="60" as="geometry" />
        </mxCell>
        <mxCell id="A2MpQam9D6wGkPrpOAFW-13" value="" style="edgeStyle=orthogonalEdgeStyle;rounded=0;orthogonalLoop=1;jettySize=auto;html=1;" edge="1" parent="WIyWlLk6GJQsqaUBKTNV-1" source="A2MpQam9D6wGkPrpOAFW-10" target="A2MpQam9D6wGkPrpOAFW-12">
          <mxGeometry relative="1" as="geometry" />
        </mxCell>
        <mxCell id="A2MpQam9D6wGkPrpOAFW-10" value="Obtenção da direção para evitar colisões (Modified VO)" style="rounded=1;whiteSpace=wrap;html=1;" vertex="1" parent="WIyWlLk6GJQsqaUBKTNV-1">
          <mxGeometry x="227.5" y="370" width="120" height="60" as="geometry" />
        </mxCell>
        <mxCell id="A2MpQam9D6wGkPrpOAFW-12" value="Obtenção do Local Path (Modelos MMG e PID)" style="whiteSpace=wrap;html=1;rounded=1;" vertex="1" parent="WIyWlLk6GJQsqaUBKTNV-1">
          <mxGeometry x="227.5" y="460" width="120" height="60" as="geometry" />
        </mxCell>
        <mxCell id="A2MpQam9D6wGkPrpOAFW-16" value="&lt;font style=&quot;font-size: 18px&quot;&gt;&lt;b&gt;&lt;font style=&quot;font-size: 18px&quot; face=&quot;Helvetica&quot;&gt;Módulo de Navegação&lt;br&gt;&lt;/font&gt;&lt;/b&gt;&lt;/font&gt;" style="text;html=1;align=center;verticalAlign=middle;resizable=0;points=[];autosize=1;strokeColor=none;fillColor=none;" vertex="1" parent="WIyWlLk6GJQsqaUBKTNV-1">
          <mxGeometry x="182.5" y="50" width="210" height="20" as="geometry" />
        </mxCell>
        <mxCell id="2CX9nWmTLA9a7k8wfStZ-0" value="" style="whiteSpace=wrap;html=1;aspect=fixed;" vertex="1" parent="WIyWlLk6GJQsqaUBKTNV-1">
          <mxGeometry x="40" y="550" width="495" height="495" as="geometry" />
        </mxCell>
        <mxCell id="2CX9nWmTLA9a7k8wfStZ-1" value="&lt;font style=&quot;font-size: 18px&quot;&gt;&lt;b&gt;&lt;font style=&quot;font-size: 18px&quot; face=&quot;Helvetica&quot;&gt;Módulo de Comunicações&lt;br&gt;&lt;/font&gt;&lt;/b&gt;&lt;/font&gt;" style="text;html=1;align=center;verticalAlign=middle;resizable=0;points=[];autosize=1;strokeColor=none;fillColor=none;" vertex="1" parent="WIyWlLk6GJQsqaUBKTNV-1">
          <mxGeometry x="167.5" y="560" width="240" height="20" as="geometry" />
        </mxCell>
        <mxCell id="2CX9nWmTLA9a7k8wfStZ-2" value="Fonte: ZHANG, Liang et. al" style="text;html=1;align=center;verticalAlign=middle;resizable=0;points=[];autosize=1;strokeColor=none;fillColor=none;fontSize=12;fontFamily=Helvetica;" vertex="1" parent="WIyWlLk6GJQsqaUBKTNV-1">
          <mxGeometry x="357.5" y="500" width="160" height="20" as="geometry" />
        </mxCell>
      </root>
    </mxGraphModel>
  </diagram>
  <diagram id="bwD25l55lR1t9PkXeIWD" name="Global View">
    <mxGraphModel dx="1426" dy="792" grid="1" gridSize="10" guides="1" tooltips="1" connect="1" arrows="1" fold="1" page="1" pageScale="1" pageWidth="827" pageHeight="1169" math="0" shadow="0">
      <root>
        <mxCell id="YVrNHk5KZFRGaSK8lHW8-0" />
        <mxCell id="YVrNHk5KZFRGaSK8lHW8-1" parent="YVrNHk5KZFRGaSK8lHW8-0" />
      </root>
    </mxGraphModel>
  </diagram>
</mxfile>
